<svg data-v-423bf9ae="" xmlns="http://www.w3.org/2000/svg" viewBox="0 0 450 90" class="iconLeft"><!----><!----><!----><g data-v-423bf9ae="" id="3f559357-c406-4655-bc7a-84b27a7a4e58" fill="#ffffff" transform="matrix(6.122449456230433,0,0,6.122449456230433,120.22693821193195,3.1836738096877255)"><path d="M3.82 1.93L3.82 1.93L3.82 1.93Q5.87 1.93 6.41 3.21L6.41 3.21L6.41 3.21Q6.56 3.53 6.56 3.63L6.56 3.63L5.69 3.63L5.69 3.89L6.62 3.89L6.62 3.88L6.62 3.88Q6.62 3.81 6.56 3.63L6.56 3.63L8.13 3.63L8.13 3.89L6.64 3.89L6.64 3.91L6.64 3.91Q6.75 4.46 6.80 5.09L6.80 5.09L6.80 5.09Q6.80 5.13 5.00 5.22L5.00 5.22L5.00 5.21L5.00 5.21Q5.00 3.58 3.88 3.58L3.88 3.58L3.69 3.58L3.69 3.58Q2.85 3.58 2.67 4.29L2.67 4.29L2.67 4.29Q2.52 4.89 2.52 5.87L2.52 5.87L2.52 7.20L2.50 7.40L1.88 7.40L1.88 7.71L2.50 7.71L2.50 10.08L5.14 10.08L5.14 7.62L6.65 7.62L6.65 10.08L5.81 10.08L5.81 11.60L4.05 11.60L4.05 11.73L2.69 11.73L2.69 11.60L1.30 11.60L1.30 10.84L2.22 10.84L2.22 10.51L0.84 10.51L0.84 9.39L0.25 9.39L0.25 8.01L0.56 8.01L0.56 8.01Q0.54 7.15 0.54 6.66L0.54 6.66L0.54 6.66Q0.54 4.42 0.76 3.84L0.76 3.84L0.76 3.84Q0.96 3.17 1.42 2.69L1.42 2.69L1.42 2.69Q2.23 1.93 3.82 1.93ZM2.63 9.59L2.63 9.59L2.71 9.59L2.71 9.93L2.91 9.93L2.91 10.04L2.63 10.04L2.63 10.04Q2.60 10.04 2.60 10.00L2.60 10.00L2.60 9.63L2.60 9.63Q2.60 9.59 2.63 9.59ZM4.69 9.60L4.69 9.59L4.79 9.59L4.79 9.59Q4.87 9.66 4.87 9.72L4.87 9.72L4.87 9.72Q4.89 9.72 4.99 9.59L4.99 9.59L5.07 9.59L5.07 9.63L5.07 9.63Q4.96 9.78 4.96 9.84L4.96 9.84L4.96 9.84Q4.98 9.84 5.09 10.01L5.09 10.01L5.09 10.04L4.99 10.04L4.87 9.91L4.87 9.91Q4.81 10.02 4.78 10.04L4.78 10.04L4.68 10.04L4.68 10.04Q4.71 9.97 4.83 9.80L4.83 9.80L4.69 9.60ZM6.04 10.19L6.04 10.19L6.04 10.19Q6.21 10.23 6.21 10.28L6.21 10.28L6.21 10.35L6.14 10.35L6.08 10.28L6.01 10.28L6.01 10.28Q5.97 10.29 5.97 10.32L5.97 10.32L5.97 10.35L5.97 10.35Q6.23 10.40 6.23 10.46L6.23 10.46L6.23 10.51L6.23 10.51Q6.23 10.64 6.08 10.64L6.08 10.64L6.01 10.64L6.01 10.64Q5.92 10.64 5.87 10.55L5.87 10.55L5.87 10.48L5.96 10.48L5.96 10.48Q5.96 10.56 6.06 10.56L6.06 10.56L6.08 10.56L6.08 10.56Q6.10 10.56 6.13 10.51L6.13 10.51L6.13 10.51Q6.13 10.49 5.89 10.40L5.89 10.40L5.88 10.36L5.88 10.28L5.88 10.28Q5.88 10.23 6.04 10.19ZM11.00 1.95L11.00 1.95L11.00 1.95Q13.10 1.95 13.77 3.42L13.77 3.42L13.77 3.42Q14.14 4.14 14.14 6.19L14.14 6.19L14.14 6.23L13.42 6.23L13.42 6.56L14.14 6.56L14.14 10.10L13.67 10.10L13.67 11.37L12.71 11.37L12.71 11.73L9.39 11.73L9.39 11.37L8.99 11.37L8.99 10.10L8.13 10.10L8.13 9.10L8.64 9.10L8.64 8.57L8.13 8.57L8.13 9.10L6.92 9.10L6.92 8.57L7.84 8.57L7.84 8.57Q7.83 7.38 7.83 6.74L7.83 6.74L7.83 5.91L7.83 5.91Q7.83 3.58 8.61 2.80L8.61 2.80L8.61 2.80Q9.33 1.95 11.00 1.95ZM9.80 5.32L9.80 5.32L9.82 5.32L9.80 5.35L9.80 6.23L9.07 6.23L9.07 6.56L9.80 6.56L9.80 6.56Q9.79 8.67 9.79 9.75L9.79 9.75L9.79 10.10L11.42 10.10L11.42 9.56L12.17 9.56L12.17 9.54L12.17 9.54Q12.17 8.54 12.16 6.75L12.16 6.75L12.16 6.75Q12.16 6.68 12.17 6.38L12.17 6.38L12.17 6.38Q12.17 4.45 11.95 4.01L11.95 4.01L11.95 4.01Q11.72 3.58 11.09 3.58L11.09 3.58L10.86 3.58L10.86 3.58Q10.11 3.58 9.93 4.24L9.93 4.24L9.93 4.24Q9.85 4.56 9.80 5.32ZM14.14 6.56L14.14 6.23L15.32 6.23L15.32 6.56L14.14 6.56ZM14.88 6.41L14.88 1.98L19.77 1.98L19.77 3.60L16.82 3.60L16.82 5.91L19.36 5.91L19.39 5.93L19.37 5.97L19.37 5.97Q19.36 6.46 19.36 6.54L19.36 6.54L19.08 6.54L19.08 6.56L19.08 6.56Q19.08 6.73 19.04 7.31L19.04 7.31L19.31 7.31L19.31 7.31Q19.31 7.59 19.26 7.59L19.26 7.59L17.47 7.59L17.47 7.92L16.54 7.92L16.54 8.10L16.82 8.10L16.82 8.96L17.75 8.96L17.75 9.11L16.82 9.11L16.82 11.47L16.80 11.58L15.80 11.58L15.80 11.73L14.91 11.73L14.91 11.73Q14.88 11.73 14.88 11.70L14.88 11.70L14.88 11.45L14.89 11.29L15.37 11.29L15.37 11.04L14.88 11.04L14.88 10.10L15.11 10.10L15.11 6.66L15.50 6.66L15.50 6.41L14.88 6.41ZM16.80 8.96L15.91 8.96L15.91 9.11L16.80 9.11L16.80 8.96ZM23.60 1.93L23.60 1.93L23.60 1.93Q25.66 1.93 26.19 3.21L26.19 3.21L26.19 3.21Q26.34 3.53 26.34 3.63L26.34 3.63L25.48 3.63L25.48 3.89L26.40 3.89L26.40 3.88L26.40 3.88Q26.40 3.81 26.34 3.63L26.34 3.63L27.92 3.63L27.92 3.89L26.42 3.89L26.42 3.91L26.42 3.91Q26.54 4.46 26.58 5.09L26.58 5.09L26.58 5.09Q26.58 5.13 24.79 5.22L24.79 5.22L24.79 5.21L24.79 5.21Q24.79 3.58 23.67 3.58L23.67 3.58L23.47 3.58L23.47 3.58Q22.63 3.58 22.45 4.29L22.45 4.29L22.45 4.29Q22.30 4.89 22.30 5.87L22.30 5.87L22.30 7.20L22.29 7.40L21.66 7.40L21.66 7.71L22.29 7.71L22.29 10.08L24.92 10.08L24.92 7.62L26.43 7.62L26.43 10.08L25.59 10.08L25.59 11.60L23.84 11.60L23.84 11.73L22.47 11.73L22.47 11.60L21.08 11.60L21.08 10.84L22.00 10.84L22.00 10.51L20.62 10.51L20.62 9.39L20.03 9.39L20.03 8.01L20.34 8.01L20.34 8.01Q20.32 7.15 20.32 6.66L20.32 6.66L20.32 6.66Q20.32 4.42 20.54 3.84L20.54 3.84L20.54 3.84Q20.74 3.17 21.20 2.69L21.20 2.69L21.20 2.69Q22.01 1.93 23.60 1.93ZM22.42 9.59L22.42 9.59L22.50 9.59L22.50 9.93L22.70 9.93L22.70 10.04L22.42 10.04L22.42 10.04Q22.39 10.04 22.39 10.00L22.39 10.00L22.39 9.63L22.39 9.63Q22.39 9.59 22.42 9.59ZM24.47 9.60L24.47 9.59L24.58 9.59L24.58 9.59Q24.66 9.66 24.66 9.72L24.66 9.72L24.66 9.72Q24.67 9.72 24.77 9.59L24.77 9.59L24.86 9.59L24.86 9.63L24.86 9.63Q24.74 9.78 24.74 9.84L24.74 9.84L24.74 9.84Q24.76 9.84 24.87 10.01L24.87 10.01L24.87 10.04L24.77 10.04L24.66 9.91L24.66 9.91Q24.60 10.02 24.56 10.04L24.56 10.04L24.46 10.04L24.46 10.04Q24.49 9.97 24.61 9.80L24.61 9.80L24.47 9.60ZM25.83 10.19L25.83 10.19L25.83 10.19Q25.99 10.23 25.99 10.28L25.99 10.28L25.99 10.35L25.92 10.35L25.86 10.28L25.79 10.28L25.79 10.28Q25.76 10.29 25.76 10.32L25.76 10.32L25.76 10.35L25.76 10.35Q26.01 10.40 26.01 10.46L26.01 10.46L26.01 10.51L26.01 10.51Q26.01 10.64 25.86 10.64L25.86 10.64L25.79 10.64L25.79 10.64Q25.70 10.64 25.65 10.55L25.65 10.55L25.65 10.48L25.74 10.48L25.74 10.48Q25.74 10.56 25.84 10.56L25.84 10.56L25.86 10.56L25.86 10.56Q25.88 10.56 25.91 10.51L25.91 10.51L25.91 10.51Q25.91 10.49 25.68 10.40L25.68 10.40L25.66 10.36L25.66 10.28L25.66 10.28Q25.66 10.23 25.83 10.19ZM30.78 1.95L30.78 1.95L30.78 1.95Q32.89 1.95 33.55 3.42L33.55 3.42L33.55 3.42Q33.93 4.14 33.93 6.19L33.93 6.19L33.93 6.23L33.20 6.23L33.20 6.56L33.93 6.56L33.93 10.10L33.45 10.10L33.45 11.37L32.50 11.37L32.50 11.73L29.18 11.73L29.18 11.37L28.77 11.37L28.77 10.10L27.92 10.10L27.92 9.10L28.42 9.10L28.42 8.57L27.92 8.57L27.92 9.10L26.71 9.10L26.71 8.57L27.62 8.57L27.62 8.57Q27.61 7.38 27.61 6.74L27.61 6.74L27.61 5.91L27.61 5.91Q27.61 3.58 28.40 2.80L28.40 2.80L28.40 2.80Q29.11 1.95 30.78 1.95ZM29.59 5.32L29.59 5.32L29.61 5.32L29.59 5.35L29.59 6.23L28.85 6.23L28.85 6.56L29.59 6.56L29.59 6.56Q29.57 8.67 29.57 9.75L29.57 9.75L29.57 10.10L31.21 10.10L31.21 9.56L31.96 9.56L31.96 9.54L31.96 9.54Q31.96 8.54 31.94 6.75L31.94 6.75L31.94 6.75Q31.94 6.68 31.96 6.38L31.96 6.38L31.96 6.38Q31.96 4.45 31.73 4.01L31.73 4.01L31.73 4.01Q31.50 3.58 30.88 3.58L30.88 3.58L30.64 3.58L30.64 3.58Q29.89 3.58 29.72 4.24L29.72 4.24L29.72 4.24Q29.63 4.56 29.59 5.32ZM33.93 6.56L33.93 6.23L35.10 6.23L35.10 6.56L33.93 6.56ZM35.14 6.62L35.14 1.96L38.12 1.96L38.12 1.96Q39.98 1.96 40.67 3.22L40.67 3.22L40.67 3.22Q41.28 4.20 41.28 6.49L41.28 6.49L41.57 6.49L41.57 8.83L38.67 8.83L38.67 8.56L39.58 8.56L39.58 6.49L39.31 6.49L39.31 5.63L39.31 5.63Q39.31 4.19 38.67 3.79L38.67 3.79L38.67 3.79Q38.29 3.58 37.46 3.58L37.46 3.58L37.06 3.58L37.06 6.44L37.33 6.44L37.33 8.83L35.38 8.83L35.38 6.62L35.14 6.62ZM34.27 9.13L34.27 8.83L35.15 8.83L35.15 9.13L37.33 9.13L37.33 9.78L38.67 9.78L38.67 9.13L41.57 9.13L41.57 9.78L39.58 9.78L39.58 11.52L37.33 11.52L37.33 11.73L35.17 11.73L35.17 11.73Q35.14 11.73 35.14 11.70L35.14 11.70L35.14 9.13L34.27 9.13ZM37.33 9.13L37.33 8.83L38.67 8.83L38.67 9.13L37.33 9.13ZM41.57 9.13L41.57 8.83L43.49 8.83L43.49 9.13L41.57 9.13ZM42.42 6.80L42.42 2.00L47.21 2.00L47.21 3.60L47.21 3.60Q47.21 3.63 47.17 3.63L47.17 3.63L44.33 3.63L44.33 5.74L46.88 5.74L46.88 5.76L46.88 5.76Q46.88 5.84 46.85 6.79L46.85 6.79L46.85 6.79Q46.83 6.79 46.83 6.80L46.83 6.80L46.95 6.80L46.95 7.29L44.74 7.29L44.74 9.29L44.15 9.29L44.15 9.49L44.74 9.49L44.74 10.10L47.24 10.10L47.24 10.32L47.04 10.32L47.04 11.52L44.05 11.52L44.05 11.73L42.63 11.73L42.63 8.24L42.42 8.24L42.42 7.01L40.86 7.01L40.86 6.80L42.42 6.80ZM43.23 6.80L42.43 6.80L42.43 7.01L43.23 7.01L43.23 6.80ZM47.98 7.49L47.98 1.96L51.33 1.96L51.33 1.96Q53.01 1.96 53.50 3.14L53.50 3.14L53.50 3.14Q53.72 3.75 53.72 4.53L53.72 4.53L53.72 4.94L53.72 4.94Q53.72 6.36 53.09 7.11L53.09 7.11L52.38 7.11L52.38 7.47L53.47 7.47L53.47 9.81L52.83 9.81L52.83 10.17L53.80 10.17L53.80 11.55L51.76 11.55L51.76 9.34L50.98 9.34L50.98 7.92L49.61 7.92L49.61 10.34L49.90 10.34L49.90 11.73L48.02 11.73L48.02 11.73Q47.98 11.73 47.98 11.70L47.98 11.70L47.98 7.77L48.82 7.77L48.82 7.49L47.98 7.49ZM50.71 3.55L49.90 3.55L49.90 6.31L50.37 6.31L50.37 6.31Q51.41 6.31 51.58 6.11L51.58 6.11L51.58 6.11Q51.75 6.00 51.84 5.67L51.84 5.67L52.57 5.67L52.57 5.32L51.91 5.32L51.91 5.35L51.91 5.35Q51.86 5.67 51.83 5.67L51.83 5.67L50.89 5.67L50.89 5.32L51.88 5.32L51.88 5.32Q51.91 5.32 51.91 5.29L51.91 5.29L51.91 5.29Q51.93 4.87 51.93 4.81L51.93 4.81L51.93 4.81Q51.93 3.90 51.61 3.69L51.61 3.69L51.61 3.69Q51.37 3.55 50.71 3.55L50.71 3.55Z"></path></g><!----><g data-v-423bf9ae="" id="d7c97c87-a526-403c-872f-89d2ada8ddd8" transform="matrix(1.1184845662805984,0,0,1.1184845662805984,-4.386151922769912,-13.464222980946133)" stroke="none" fill="#010033"><path d="M92.802 29.023a4.278 4.278 0 1 0-3.642 7.745 4.279 4.279 0 1 0 3.642-7.745zM82.585 80.495a3.076 3.076 0 0 0-3.795 2.132 3.075 3.075 0 0 0 2.131 3.795 3.081 3.081 0 0 0 3.797-2.134 3.08 3.08 0 0 0-2.133-3.793zM61.674 60.653l7.567 6.597 7.02-.604-7.989-7.311 10.948-5.017-10.402-4.133-7.654 3.208L86.388 37.97a6.813 6.813 0 0 1-1.859-2.804L60.848 52.915l11.095-10.879-7.724-.262 2.211-8.345-5.161 2.278-3.691 14.645 5.271-28.916a5.793 5.793 0 0 1-3.051-.536l-2.785 29.352-.634-15.722-2.276-4.063-3.418 6.923-8.743-3.328 2.64 8.22 5.62 7.377 4.277 3.821-28.323-18.787a12.982 12.982 0 0 1-4.261 8.392L53.78 54.847l-16.891-2.304-6.641 3.044 11.194 4.445-7.594 7.712 5.452.187 15.651-10.507-26.97 24.9a7.294 7.294 0 0 1 2.559 2.211L55.358 57.82 44.113 76.003l7.485-3.299 3.77 6.736 3.421-6.922 8.736 3.324-2.004-6.255-4.378-8.494 15.741 19.553a5.653 5.653 0 0 1 2.268-2.187L61.674 60.653zM63.526 18.661a3.27 3.27 0 1 0-2.45-6.065 3.274 3.274 0 0 0-1.809 4.254 3.272 3.272 0 0 0 4.259 1.811zM25.585 85.03a3.97 3.97 0 1 0-2.059 7.668 3.97 3.97 0 0 0 2.059-7.668zM21.959 32.996c-.184-4.88-4.303-8.681-9.174-8.493a8.848 8.848 0 0 0-8.496 9.187c.193 4.865 4.299 8.674 9.182 8.484 4.88-.189 8.686-4.303 8.488-9.178z"></path><path d="M63.251 28.813l-.832 2.234a.549.549 0 0 0 .735.693l7.578-3.342-2.367 8.931a1.4 1.4 0 0 0 1.307 1.76l5.605.19h.019a.552.552 0 0 0 .385-.158l1.677-1.654a.547.547 0 0 0-.365-.937l-5.466-.185 2.66-10.048a1.41 1.41 0 0 0-.445-1.426c-.405-.344-1-.429-1.475-.215l-8.724 3.848a.547.547 0 0 0-.292.309zM36.266 34.946a.556.556 0 0 0 .114.199l2.789 3.093a.544.544 0 0 0 .679.108.548.548 0 0 0 .249-.642l-2.712-8.444 10.69 4.069c.16.061.327.09.496.09.538 0 1.021-.299 1.258-.78l4.112-8.327 1.917 3.421c.1.178.29.293.484.28a.547.547 0 0 0 .54-.64l-.02-3.441a.55.55 0 0 0-.07-.265l-1.707-3.047a1.388 1.388 0 0 0-1.211-.718h-.049a1.4 1.4 0 0 0-1.221.781l-4.725 9.571-12.223-4.651a1.419 1.419 0 0 0-1.466.293 1.413 1.413 0 0 0-.369 1.445l2.445 7.605zM70.085 80.085a.545.545 0 0 0-.316-.318l-8.372-3.188a1.376 1.376 0 0 0-.496-.092c-.53 0-1.024.308-1.259.782l-4.114 8.327-4.537-8.104a1.406 1.406 0 0 0-1.788-.599l-8.139 3.589a.548.548 0 0 0-.255.23l-1.416 2.49a.548.548 0 1 0 .697.772l9.079-4.002 5.212 9.316c.249.443.718.717 1.224.717h.038a1.405 1.405 0 0 0 1.22-.78l4.729-9.573 8.597 3.272a.548.548 0 0 0 .707-.705l-.811-2.134zM22.98 70.698a1.404 1.404 0 0 0 .951 2.385l8.295.281a.554.554 0 0 0 .331-.097l2.351-1.627a.548.548 0 1 0-.292-.998l-7.398-.253 7.661-7.782c.332-.336.471-.812.373-1.272a1.406 1.406 0 0 0-.854-1.014L22.95 55.775l7.499-3.437a.548.548 0 0 0-.17-1.042l-3.336-.351a.548.548 0 0 0-.285.047L18.8 54.593a1.402 1.402 0 0 0 .067 2.577L31.4 62.147l-8.42 8.551zM90.602 52.737l-12.898-5.124a.545.545 0 0 0-.329-.024l-2.62.624a.547.547 0 0 0-.333.832c.162.249.388.436.651.54l11.445 4.547-11.194 5.129a1.405 1.405 0 0 0-.363 2.309l8.059 7.376-9.105.783a.548.548 0 0 0-.249 1.007l2.359 1.511a.544.544 0 0 0 .344.084l10.073-.865a1.403 1.403 0 0 0 .827-2.431l-8.854-8.104 12.255-5.614c.511-.234.831-.748.816-1.312a1.4 1.4 0 0 0-.884-1.268z"></path></g><!----></svg>